<svg xmlns="http://www.w3.org/2000/svg" viewBox="0 0 587 587">
<style>.m{fill:#11202F}@media(prefers-color-scheme:dark){.m{fill:#EDF0F4}}</style>
<path d="M 79,434.5 L 64,434.5 L 61.5,432 L 61.5,369 L 67,365.5 L 74,365.5 L 85,362.5 L 100,355.5 L 117,342.5 L 135.5,322 L 164.5,278 L 209.5,193 L 224.5,168 L 240.5,144 L 257.5,123 L 273,107.5 L 294,92.5 L 309,85.5 L 327,80.5 L 343,80.5 L 357,83.5 L 372,90.5 L 380,96.5 L 387.5,104 L 397.5,118 L 405.5,136 L 412.5,165 L 415.5,196 L 415.5,215 L 413,217.5 L 404.5,205 L 396,196.5 L 389,192.5 L 383,190.5 L 370,190.5 L 361,193.5 L 358.5,191 L 358.5,180 L 355.5,167 L 352.5,161 L 346,154.5 L 341,152.5 L 330,152.5 L 320,155.5 L 311,160.5 L 293.5,177 L 274.5,203 L 251.5,243 L 208.5,327 L 197.5,345 L 173.5,378 L 149,403.5 L 128,418.5 L 101,430.5 Z" fill="#51ADE0"/>
<path d="M 194,504.5 L 158,504.5 L 145,502.5 L 125,496.5 L 112,490.5 L 93,478.5 L 82,469.5 L 63.5,450 L 66,447.5 L 85,447.5 L 100,444.5 L 117,438.5 L 130,430.5 L 133,430.5 L 144,437.5 L 160,443.5 L 176,445.5 L 185,444.5 L 204,437.5 L 218,427.5 L 237.5,406 L 253.5,382 L 284.5,322 L 314.5,259 L 324.5,242 L 336.5,225 L 354,208.5 L 368,202.5 L 385,203.5 L 391,206.5 L 404.5,222 L 410.5,235 L 417.5,260 L 432.5,359 L 437.5,376 L 443,383.5 L 447,385.5 L 452,385.5 L 462.5,377 L 472.5,358 L 485.5,325 L 488,322.5 L 522,320.5 L 524.5,323 L 509.5,372 L 501.5,391 L 488.5,414 L 482.5,422 L 470,434.5 L 464,438.5 L 451,443.5 L 437,443.5 L 424,437.5 L 411.5,425 L 401.5,408 L 393.5,386 L 389.5,370 L 380.5,305 L 379.5,302 L 374,296.5 L 365,296.5 L 357.5,303 L 350.5,314 L 321.5,381 L 303.5,417 L 288.5,441 L 275.5,458 L 257,476.5 L 239,489.5 L 220,498.5 Z" class="m" />
</svg>